<svg width="92" height="107" viewBox="0 0 92 107" fill="none" xmlns="http://www.w3.org/2000/svg">
<rect width="90.78" height="105.59" transform="translate(0.719971 0.5)" fill="white"/>
<rect x="24.61" y="29.2" width="42" height="2" fill="black"/>
<rect width="42" height="2" transform="translate(24.61 39.2)" fill="black"/>
<rect x="24.61" y="49.2" width="42" height="2" fill="black"/>
<path d="M25.1291 62.5636H26.8109L30.7654 72.2227H30.9018L34.8563 62.5636H36.5382V74.2H35.22V65.3591H35.1063L31.47 74.2H30.1972L26.5609 65.3591H26.4472V74.2H25.1291V62.5636ZM42.4407 74.3818C41.5998 74.3818 40.8744 74.1962 40.2646 73.825C39.6585 73.45 39.1907 72.9273 38.8612 72.2568C38.5354 71.5826 38.3725 70.7985 38.3725 69.9046C38.3725 69.0106 38.5354 68.2227 38.8612 67.5409C39.1907 66.8553 39.649 66.3212 40.2362 65.9386C40.8271 65.5523 41.5165 65.3591 42.3043 65.3591C42.7589 65.3591 43.2078 65.4349 43.6509 65.5864C44.0941 65.7379 44.4975 65.9841 44.8612 66.325C45.2248 66.6621 45.5146 67.1091 45.7305 67.6659C45.9464 68.2227 46.0543 68.9083 46.0543 69.7227V70.2909H39.3271V69.1318H44.6907C44.6907 68.6394 44.5922 68.2 44.3953 67.8136C44.2021 67.4273 43.9256 67.1224 43.5657 66.8989C43.2096 66.6754 42.7892 66.5636 42.3043 66.5636C41.7703 66.5636 41.3081 66.6962 40.918 66.9614C40.5316 67.2227 40.2343 67.5636 40.0259 67.9841C39.8176 68.4046 39.7134 68.8553 39.7134 69.3364V70.1091C39.7134 70.7682 39.8271 71.3269 40.0543 71.7852C40.2854 72.2398 40.6055 72.5864 41.0146 72.825C41.4237 73.0599 41.899 73.1773 42.4407 73.1773C42.793 73.1773 43.1112 73.128 43.3953 73.0296C43.6831 72.9273 43.9312 72.7758 44.1396 72.575C44.3479 72.3705 44.5089 72.1167 44.6225 71.8136L45.918 72.1773C45.7816 72.6167 45.5525 73.003 45.2305 73.3364C44.9085 73.6659 44.5108 73.9235 44.0373 74.1091C43.5638 74.2909 43.0316 74.3818 42.4407 74.3818ZM49.035 68.95V74.2H47.6941V65.4727H48.9896V66.8364H49.1032C49.3078 66.3932 49.6184 66.0371 50.035 65.7682C50.4517 65.4955 50.9896 65.3591 51.6487 65.3591C52.2396 65.3591 52.7566 65.4803 53.1998 65.7227C53.643 65.9614 53.9877 66.325 54.2339 66.8136C54.4801 67.2985 54.6032 67.9121 54.6032 68.6546V74.2H53.2623V68.7455C53.2623 68.0599 53.0843 67.5258 52.7282 67.1432C52.3721 66.7568 51.8835 66.5636 51.2623 66.5636C50.8343 66.5636 50.4517 66.6565 50.1146 66.8421C49.7812 67.0277 49.518 67.2985 49.3248 67.6546C49.1316 68.0106 49.035 68.4424 49.035 68.95ZM62.1535 70.6318V65.4727H63.4944V74.2H62.1535V72.7227H62.0626C61.858 73.1659 61.5399 73.5428 61.108 73.8534C60.6762 74.1602 60.1308 74.3136 59.4717 74.3136C58.9262 74.3136 58.4414 74.1943 58.0171 73.9557C57.5929 73.7133 57.2596 73.3496 57.0171 72.8648C56.7747 72.3761 56.6535 71.7606 56.6535 71.0182V65.4727H57.9944V70.9273C57.9944 71.5636 58.1724 72.0712 58.5285 72.45C58.8883 72.8288 59.3467 73.0182 59.9035 73.0182C60.2368 73.0182 60.5758 72.933 60.9205 72.7625C61.269 72.5921 61.5607 72.3307 61.7955 71.9784C62.0342 71.6261 62.1535 71.1773 62.1535 70.6318Z" fill="black"/>
</svg>
