<svg width="141" height="23" viewBox="0 0 141 23" fill="none" xmlns="http://www.w3.org/2000/svg">
<mask id="mask0_487_2952" style="mask-type:luminance" maskUnits="userSpaceOnUse" x="0" y="0" width="141" height="23">
<path d="M140.462 0.019989H0.538269V22.5669H140.462V0.019989Z" fill="white"/>
</mask>
<g mask="url(#mask0_487_2952)">
<path d="M38.2114 13.3699C38.2114 16.0295 35.6972 18.2173 31.5502 18.2173C26.9626 18.2173 24.6039 15.0862 24.3836 11.7323H26.6386C26.7941 14.2739 28.7898 16.3701 31.4595 16.3701C34.0384 16.3701 35.8398 15.2172 35.8398 13.3437C35.8398 11.7061 34.8031 10.7629 32.5481 10.2126L30.1894 9.64924C26.5349 8.78457 24.8113 7.21245 24.8113 4.76257C24.8113 1.86724 27.6235 0.019989 30.9152 0.019989C35.2437 0.019989 37.4338 2.48299 37.7318 5.52243H35.4769C35.2696 3.42626 33.7014 1.85413 31.0188 1.85413C28.738 1.85413 27.1699 2.84982 27.1699 4.64466C27.1699 5.98096 27.9863 6.71463 30.8633 7.40901L33.222 7.97235C36.4618 8.75837 38.2114 10.2912 38.2114 13.3699Z" fill="white"/>
<path d="M38.4968 6.8334V5.14337H40.8036V2.22183H42.903V5.14337H46.117V6.8334H42.903V14.8513C42.903 15.8469 43.2529 16.2662 44.3285 16.2662H46.0262V17.9562H43.7454C41.62 17.9562 40.8036 16.9343 40.8036 15.0871V6.8334H38.4968Z" fill="white"/>
<path d="M58.843 6.58272C56.9121 6.58272 55.9531 7.6832 55.8753 9.1898H53.7759C53.9314 6.83166 55.6291 4.87958 58.843 4.87958C61.6553 4.87958 63.962 6.29449 63.962 10.1593V17.9413H61.9404V15.4259H61.8885C61.2276 17.1945 59.7373 18.1903 57.7545 18.1903C55.3181 18.1903 53.3482 16.7099 53.3482 14.2206C53.3482 11.5873 55.6291 10.7357 58.3117 10.4607L61.8626 10.0807V9.67456C61.8626 7.76179 60.8258 6.58272 58.843 6.58272ZM61.8626 12.3865V11.6921L58.4931 12.072C56.5881 12.2816 55.6291 12.9629 55.6291 14.3255C55.6291 15.6094 56.7696 16.5002 58.2598 16.5002C60.4889 16.5133 61.8626 15.1639 61.8626 12.3865Z" fill="white"/>
<path d="M64.7266 6.8334V5.14337H67.0337V2.22183H69.1326V5.14337H72.3468V6.8334H69.1326V14.8513C69.1326 15.8469 69.4827 16.2662 70.5583 16.2662H72.256V17.9562H69.9754C67.85 17.9562 67.0337 16.9343 67.0337 15.0871V6.8334H64.7266Z" fill="white"/>
<path d="M78.5154 18.2032C74.7441 18.2032 72.632 15.0982 72.632 11.5479C72.632 7.99748 74.6274 4.89255 78.4119 4.89255C82.1832 4.89255 84.4638 7.8927 84.1136 12.1898H74.7573C74.8608 14.8494 76.3774 16.5132 78.7097 16.5132C80.9126 16.5132 81.5738 14.9541 81.8463 13.9061H83.9452C83.5049 16.1857 81.9889 18.2032 78.5154 18.2032ZM74.7573 10.4998H82.0274C81.8463 8.19404 80.6282 6.58258 78.3987 6.58258C76.1698 6.58258 74.9642 8.19404 74.7573 10.4998Z" fill="white"/>
<path d="M95.0774 14.7184H95.0257C94.3128 16.5657 92.7968 17.6924 90.7882 17.6924C87.1853 17.6924 85.3451 14.8233 85.3451 11.286C85.3451 7.74872 87.1979 4.87958 90.7882 4.87958C92.7836 4.87958 94.3128 6.00627 95.0257 7.8535H95.0774V5.1416H97.1769V17.509C97.1769 20.4043 95.2717 22.5529 91.6045 22.5529C88.2609 22.5529 86.4592 20.9153 86.1097 18.295H88.2092C88.4944 20.1161 89.9327 20.8629 91.6045 20.8629C93.5873 20.8629 95.0774 19.7886 95.0774 17.509V14.7184ZM91.4361 16.0023C93.8725 16.0023 95.1808 14.1289 95.1808 11.286C95.1808 8.44304 93.8592 6.56961 91.4361 6.56961C88.9997 6.56961 87.6389 8.44304 87.6389 11.286C87.6389 14.1289 88.9997 16.0023 91.4361 16.0023Z" fill="white"/>
<path d="M98.0967 5.1438H100.274L104.382 16.5155L108.413 5.1438H110.59L104.512 22.3062H102.335L104.33 16.6727H102.257L98.0967 5.1438Z" fill="white"/>
<path d="M118.016 6.83128H111.303V5.14124H120.608V6.83128L113.713 16.264H120.828V17.9541H111.122V16.264L118.016 6.83128Z" fill="white"/>
<path d="M126.906 18.2032C123.135 18.2032 121.023 15.0982 121.023 11.5479C121.023 7.99748 123.018 4.89255 126.802 4.89255C130.574 4.89255 132.855 7.8927 132.505 12.1898H123.148C123.252 14.8494 124.768 16.5132 127.101 16.5132C129.304 16.5132 129.965 14.9541 130.237 13.9061H132.336C131.908 16.1857 130.379 18.2032 126.906 18.2032ZM123.161 10.4998H130.431C130.25 8.19404 129.032 6.58258 126.802 6.58258C124.573 6.58258 123.368 8.19404 123.161 10.4998Z" fill="white"/>
<path d="M53.8409 5.1438H47.3871V17.9566H49.4347V6.84691H53.8409V5.1438Z" fill="white"/>
<path d="M140.462 5.1438H134.008V17.9566H136.055V6.84691H140.462V5.1438Z" fill="white"/>
<path d="M14.8455 9.11209C14.8455 12.073 12.461 14.4836 9.53216 14.4836C6.6033 14.4836 4.21876 12.073 4.21876 9.11209C4.21876 6.15128 6.6033 3.74069 9.53216 3.74069V0.019989C4.56867 0.019989 0.538269 4.10752 0.538269 9.11209C0.538269 14.1298 4.56867 18.2043 9.53216 18.2043C14.4956 18.2043 18.526 14.1298 18.526 9.11209H14.8455ZM9.53216 9.12522H14.8455C14.8455 6.16438 12.461 3.75379 9.53216 3.75379V9.12522Z" fill="white"/>
</g>
</svg>
